<?xml version="1.0" encoding="UTF-8" standalone="no"?>
<!DOCTYPE svg PUBLIC "-//W3C//DTD SVG 1.1//EN"
 "http://www.w3.org/Graphics/SVG/1.1/DTD/svg11.dtd">
<!-- Generated by graphviz version 2.43.0 (0)
 -->
<!-- Title: sourcetree Pages: 1 -->
<svg width="857pt" height="260pt"
 viewBox="0.00 0.00 857.00 260.00" xmlns="http://www.w3.org/2000/svg" xmlns:xlink="http://www.w3.org/1999/xlink">
<g id="graph0" class="graph" transform="scale(1 1) rotate(0) translate(4 256)">
<title>sourcetree</title>
<polygon fill="white" stroke="transparent" points="-4,4 -4,-256 853,-256 853,4 -4,4"/>
<!-- MulleZlib -->
<g id="node1" class="node">
<title>MulleZlib</title>
<polygon fill="yellow" stroke="black" points="618.5,-252 533.5,-252 533.5,-216 618.5,-216 618.5,-252"/>
<text text-anchor="middle" x="576" y="-230.3" font-family="Times,serif" font-size="14.00">MulleZlib</text>
</g>
<!-- MulleObjCValueFoundation -->
<g id="node9" class="node">
<title>MulleObjCValueFoundation</title>
<polygon fill="lightgrey" stroke="black" points="505,-180 293,-180 293,-144 505,-144 505,-180"/>
<text text-anchor="middle" x="399" y="-158.3" font-family="Times,serif" font-size="14.00">MulleObjCValueFoundation</text>
</g>
<!-- MulleZlib&#45;&gt;MulleObjCValueFoundation -->
<g id="edge9" class="edge">
<title>MulleZlib&#45;&gt;MulleObjCValueFoundation</title>
<path fill="none" stroke="black" d="M533.15,-216.05C508.55,-206.33 477.47,-194.03 451.41,-183.73"/>
<polygon fill="black" stroke="black" points="452.65,-180.45 442.07,-180.03 450.08,-186.96 452.65,-180.45"/>
</g>
<!-- craftinfo/zlib -->
<g id="node10" class="node">
<title>craftinfo/zlib</title>
<polygon fill="lightgrey" stroke="black" points="629.5,-180 522.5,-180 522.5,-144 629.5,-144 629.5,-180"/>
<text text-anchor="middle" x="576" y="-158.3" font-family="Times,serif" font-size="14.00">craftinfo/zlib</text>
</g>
<!-- MulleZlib&#45;&gt;craftinfo/zlib -->
<g id="edge8" class="edge">
<title>MulleZlib&#45;&gt;craftinfo/zlib</title>
<path fill="none" stroke="black" d="M576,-215.7C576,-207.98 576,-198.71 576,-190.11"/>
<polygon fill="black" stroke="black" points="579.5,-190.1 576,-180.1 572.5,-190.1 579.5,-190.1"/>
</g>
<!-- zlib -->
<g id="node11" class="node">
<title>zlib</title>
<polygon fill="lightgrey" stroke="black" points="702,-180 648,-180 648,-144 702,-144 702,-180"/>
<text text-anchor="middle" x="675" y="-158.3" font-family="Times,serif" font-size="14.00">zlib</text>
</g>
<!-- MulleZlib&#45;&gt;zlib -->
<g id="edge10" class="edge">
<title>MulleZlib&#45;&gt;zlib</title>
<path fill="none" stroke="black" d="M600.22,-215.88C612.92,-206.89 628.66,-195.76 642.42,-186.03"/>
<polygon fill="black" stroke="black" points="644.54,-188.82 650.69,-180.19 640.5,-183.11 644.54,-188.82"/>
</g>
<!-- MulleObjC -->
<g id="node2" class="node">
<title>MulleObjC</title>
<polygon fill="lightgrey" stroke="black" points="445,-108 353,-108 353,-72 445,-72 445,-108"/>
<text text-anchor="middle" x="399" y="-86.3" font-family="Times,serif" font-size="14.00">MulleObjC</text>
</g>
<!-- mulle&#45;container -->
<g id="node3" class="node">
<title>mulle&#45;container</title>
<polygon fill="lightgrey" stroke="black" points="128,-36 0,-36 0,0 128,0 128,-36"/>
<text text-anchor="middle" x="64" y="-14.3" font-family="Times,serif" font-size="14.00">mulle&#45;container</text>
</g>
<!-- MulleObjC&#45;&gt;mulle&#45;container -->
<g id="edge1" class="edge">
<title>MulleObjC&#45;&gt;mulle&#45;container</title>
<path fill="none" stroke="black" d="M352.53,-80.03C302.14,-70.2 219.08,-53.73 137.95,-36.18"/>
<polygon fill="black" stroke="black" points="138.59,-32.73 128.07,-34.03 137.1,-39.57 138.59,-32.73"/>
</g>
<!-- mulle&#45;fprintf -->
<g id="node4" class="node">
<title>mulle&#45;fprintf</title>
<polygon fill="lightgrey" stroke="black" points="253.5,-36 146.5,-36 146.5,0 253.5,0 253.5,-36"/>
<text text-anchor="middle" x="200" y="-14.3" font-family="Times,serif" font-size="14.00">mulle&#45;fprintf</text>
</g>
<!-- MulleObjC&#45;&gt;mulle&#45;fprintf -->
<g id="edge2" class="edge">
<title>MulleObjC&#45;&gt;mulle&#45;fprintf</title>
<path fill="none" stroke="black" d="M352.85,-72.76C324.56,-62.82 288.11,-49.99 257.9,-39.37"/>
<polygon fill="black" stroke="black" points="258.93,-36.02 248.33,-36 256.6,-42.62 258.93,-36.02"/>
</g>
<!-- mulle&#45;multififo -->
<g id="node5" class="node">
<title>mulle&#45;multififo</title>
<polygon fill="lightgrey" stroke="black" points="392.5,-36 271.5,-36 271.5,0 392.5,0 392.5,-36"/>
<text text-anchor="middle" x="332" y="-14.3" font-family="Times,serif" font-size="14.00">mulle&#45;multififo</text>
</g>
<!-- MulleObjC&#45;&gt;mulle&#45;multififo -->
<g id="edge3" class="edge">
<title>MulleObjC&#45;&gt;mulle&#45;multififo</title>
<path fill="none" stroke="black" d="M382.44,-71.7C374.32,-63.22 364.41,-52.86 355.53,-43.58"/>
<polygon fill="black" stroke="black" points="357.81,-40.91 348.37,-36.1 352.76,-45.75 357.81,-40.91"/>
</g>
<!-- mulle&#45;objc&#45;cc -->
<g id="node6" class="node">
<title>mulle&#45;objc&#45;cc</title>
<polygon fill="lightgrey" stroke="black" points="521,-36 411,-36 411,0 521,0 521,-36"/>
<text text-anchor="middle" x="466" y="-14.3" font-family="Times,serif" font-size="14.00">mulle&#45;objc&#45;cc</text>
</g>
<!-- MulleObjC&#45;&gt;mulle&#45;objc&#45;cc -->
<g id="edge4" class="edge">
<title>MulleObjC&#45;&gt;mulle&#45;objc&#45;cc</title>
<path fill="none" stroke="black" d="M415.56,-71.7C423.68,-63.22 433.59,-52.86 442.47,-43.58"/>
<polygon fill="black" stroke="black" points="445.24,-45.75 449.63,-36.1 440.19,-40.91 445.24,-45.75"/>
</g>
<!-- mulle&#45;objc&#45;debug -->
<g id="node7" class="node">
<title>mulle&#45;objc&#45;debug</title>
<polygon fill="lightgrey" stroke="black" points="678.5,-36 539.5,-36 539.5,0 678.5,0 678.5,-36"/>
<text text-anchor="middle" x="609" y="-14.3" font-family="Times,serif" font-size="14.00">mulle&#45;objc&#45;debug</text>
</g>
<!-- MulleObjC&#45;&gt;mulle&#45;objc&#45;debug -->
<g id="edge5" class="edge">
<title>MulleObjC&#45;&gt;mulle&#45;objc&#45;debug</title>
<path fill="none" stroke="black" d="M445.09,-73.64C475.41,-63.53 515.44,-50.19 548.35,-39.22"/>
<polygon fill="black" stroke="black" points="549.49,-42.53 557.87,-36.04 547.27,-35.89 549.49,-42.53"/>
</g>
<!-- mulle&#45;objc&#45;runtime -->
<g id="node8" class="node">
<title>mulle&#45;objc&#45;runtime</title>
<polygon fill="lightgrey" stroke="black" points="849,-36 697,-36 697,0 849,0 849,-36"/>
<text text-anchor="middle" x="773" y="-14.3" font-family="Times,serif" font-size="14.00">mulle&#45;objc&#45;runtime</text>
</g>
<!-- MulleObjC&#45;&gt;mulle&#45;objc&#45;runtime -->
<g id="edge6" class="edge">
<title>MulleObjC&#45;&gt;mulle&#45;objc&#45;runtime</title>
<path fill="none" stroke="black" d="M445.09,-80.78C500.16,-70.91 595.34,-53.69 686.6,-36.25"/>
<polygon fill="black" stroke="black" points="687.39,-39.67 696.56,-34.35 686.08,-32.79 687.39,-39.67"/>
</g>
<!-- MulleObjCValueFoundation&#45;&gt;MulleObjC -->
<g id="edge7" class="edge">
<title>MulleObjCValueFoundation&#45;&gt;MulleObjC</title>
<path fill="none" stroke="black" d="M399,-143.7C399,-135.98 399,-126.71 399,-118.11"/>
<polygon fill="black" stroke="black" points="402.5,-118.1 399,-108.1 395.5,-118.1 402.5,-118.1"/>
</g>
</g>
</svg>
