<?xml version="1.0" encoding="UTF-8" standalone="no"?>
<!DOCTYPE svg PUBLIC "-//W3C//DTD SVG 1.1//EN"
 "http://www.w3.org/Graphics/SVG/1.1/DTD/svg11.dtd">
<!-- Generated by graphviz version 2.43.0 (0)
 -->
<!-- Title: sourcetree Pages: 1 -->
<svg width="698pt" height="260pt"
 viewBox="0.00 0.00 698.00 260.00" xmlns="http://www.w3.org/2000/svg" xmlns:xlink="http://www.w3.org/1999/xlink">
<g id="graph0" class="graph" transform="scale(1 1) rotate(0) translate(4 256)">
<title>sourcetree</title>
<polygon fill="white" stroke="transparent" points="-4,4 -4,-256 694,-256 694,4 -4,4"/>
<!-- MulleZlib -->
<g id="node1" class="node">
<title>MulleZlib</title>
<polygon fill="yellow" stroke="black" points="536.5,-252 451.5,-252 451.5,-216 536.5,-216 536.5,-252"/>
<text text-anchor="middle" x="494" y="-230.3" font-family="Times,serif" font-size="14.00">MulleZlib</text>
</g>
<!-- MulleObjCValueFoundation -->
<g id="node7" class="node">
<title>MulleObjCValueFoundation</title>
<polygon fill="lightgrey" stroke="black" points="358,-180 146,-180 146,-144 358,-144 358,-180"/>
<text text-anchor="middle" x="252" y="-158.3" font-family="Times,serif" font-size="14.00">MulleObjCValueFoundation</text>
</g>
<!-- MulleZlib&#45;&gt;MulleObjCValueFoundation -->
<g id="edge8" class="edge">
<title>MulleZlib&#45;&gt;MulleObjCValueFoundation</title>
<path fill="none" stroke="black" d="M451.29,-220.65C415.16,-210.2 362.71,-195.02 320.69,-182.87"/>
<polygon fill="black" stroke="black" points="321.65,-179.5 311.07,-180.09 319.71,-186.23 321.65,-179.5"/>
</g>
<!-- craftinfo/zlib -->
<g id="node8" class="node">
<title>craftinfo/zlib</title>
<polygon fill="lightgrey" stroke="black" points="482.5,-180 375.5,-180 375.5,-144 482.5,-144 482.5,-180"/>
<text text-anchor="middle" x="429" y="-158.3" font-family="Times,serif" font-size="14.00">craftinfo/zlib</text>
</g>
<!-- MulleZlib&#45;&gt;craftinfo/zlib -->
<g id="edge6" class="edge">
<title>MulleZlib&#45;&gt;craftinfo/zlib</title>
<path fill="none" stroke="black" d="M477.93,-215.7C470.06,-207.22 460.44,-196.86 451.83,-187.58"/>
<polygon fill="black" stroke="black" points="454.25,-185.05 444.88,-180.1 449.12,-189.81 454.25,-185.05"/>
</g>
<!-- mulle&#45;objc&#45;list -->
<g id="node9" class="node">
<title>mulle&#45;objc&#45;list</title>
<polygon fill="lightgrey" stroke="black" points="617.5,-180 500.5,-180 500.5,-144 617.5,-144 617.5,-180"/>
<text text-anchor="middle" x="559" y="-158.3" font-family="Times,serif" font-size="14.00">mulle&#45;objc&#45;list</text>
</g>
<!-- MulleZlib&#45;&gt;mulle&#45;objc&#45;list -->
<g id="edge7" class="edge">
<title>MulleZlib&#45;&gt;mulle&#45;objc&#45;list</title>
<path fill="none" stroke="black" d="M510.07,-215.7C517.94,-207.22 527.56,-196.86 536.17,-187.58"/>
<polygon fill="black" stroke="black" points="538.88,-189.81 543.12,-180.1 533.75,-185.05 538.88,-189.81"/>
</g>
<!-- zlib -->
<g id="node10" class="node">
<title>zlib</title>
<polygon fill="lightgrey" stroke="black" points="690,-180 636,-180 636,-144 690,-144 690,-180"/>
<text text-anchor="middle" x="663" y="-158.3" font-family="Times,serif" font-size="14.00">zlib</text>
</g>
<!-- MulleZlib&#45;&gt;zlib -->
<g id="edge9" class="edge">
<title>MulleZlib&#45;&gt;zlib</title>
<path fill="none" stroke="black" d="M536.51,-216.84C560.6,-207.5 591.46,-195.25 626.47,-180.12"/>
<polygon fill="black" stroke="black" points="628.18,-183.19 635.96,-175.99 625.39,-176.77 628.18,-183.19"/>
</g>
<!-- MulleObjC -->
<g id="node2" class="node">
<title>MulleObjC</title>
<polygon fill="lightgrey" stroke="black" points="298,-108 206,-108 206,-72 298,-72 298,-108"/>
<text text-anchor="middle" x="252" y="-86.3" font-family="Times,serif" font-size="14.00">MulleObjC</text>
</g>
<!-- mulle&#45;container -->
<g id="node3" class="node">
<title>mulle&#45;container</title>
<polygon fill="lightgrey" stroke="black" points="128,-36 0,-36 0,0 128,0 128,-36"/>
<text text-anchor="middle" x="64" y="-14.3" font-family="Times,serif" font-size="14.00">mulle&#45;container</text>
</g>
<!-- MulleObjC&#45;&gt;mulle&#45;container -->
<g id="edge1" class="edge">
<title>MulleObjC&#45;&gt;mulle&#45;container</title>
<path fill="none" stroke="black" d="M206.01,-71.88C179.85,-62.14 146.91,-49.87 119.35,-39.61"/>
<polygon fill="black" stroke="black" points="120.43,-36.28 109.84,-36.07 117.99,-42.84 120.43,-36.28"/>
</g>
<!-- mulle&#45;fifo -->
<g id="node4" class="node">
<title>mulle&#45;fifo</title>
<polygon fill="lightgrey" stroke="black" points="229.5,-36 146.5,-36 146.5,0 229.5,0 229.5,-36"/>
<text text-anchor="middle" x="188" y="-14.3" font-family="Times,serif" font-size="14.00">mulle&#45;fifo</text>
</g>
<!-- MulleObjC&#45;&gt;mulle&#45;fifo -->
<g id="edge2" class="edge">
<title>MulleObjC&#45;&gt;mulle&#45;fifo</title>
<path fill="none" stroke="black" d="M236.18,-71.7C228.43,-63.22 218.96,-52.86 210.48,-43.58"/>
<polygon fill="black" stroke="black" points="212.97,-41.12 203.64,-36.1 207.8,-45.85 212.97,-41.12"/>
</g>
<!-- mulle&#45;objc&#45;debug -->
<g id="node5" class="node">
<title>mulle&#45;objc&#45;debug</title>
<polygon fill="lightgrey" stroke="black" points="386.5,-36 247.5,-36 247.5,0 386.5,0 386.5,-36"/>
<text text-anchor="middle" x="317" y="-14.3" font-family="Times,serif" font-size="14.00">mulle&#45;objc&#45;debug</text>
</g>
<!-- MulleObjC&#45;&gt;mulle&#45;objc&#45;debug -->
<g id="edge3" class="edge">
<title>MulleObjC&#45;&gt;mulle&#45;objc&#45;debug</title>
<path fill="none" stroke="black" d="M268.07,-71.7C275.94,-63.22 285.56,-52.86 294.17,-43.58"/>
<polygon fill="black" stroke="black" points="296.88,-45.81 301.12,-36.1 291.75,-41.05 296.88,-45.81"/>
</g>
<!-- mulle&#45;objc&#45;runtime -->
<g id="node6" class="node">
<title>mulle&#45;objc&#45;runtime</title>
<polygon fill="lightgrey" stroke="black" points="557,-36 405,-36 405,0 557,0 557,-36"/>
<text text-anchor="middle" x="481" y="-14.3" font-family="Times,serif" font-size="14.00">mulle&#45;objc&#45;runtime</text>
</g>
<!-- MulleObjC&#45;&gt;mulle&#45;objc&#45;runtime -->
<g id="edge4" class="edge">
<title>MulleObjC&#45;&gt;mulle&#45;objc&#45;runtime</title>
<path fill="none" stroke="black" d="M298.07,-74.92C331.76,-64.62 377.93,-50.51 415.46,-39.03"/>
<polygon fill="black" stroke="black" points="416.76,-42.3 425.3,-36.03 414.71,-35.6 416.76,-42.3"/>
</g>
<!-- MulleObjCValueFoundation&#45;&gt;MulleObjC -->
<g id="edge5" class="edge">
<title>MulleObjCValueFoundation&#45;&gt;MulleObjC</title>
<path fill="none" stroke="black" d="M252,-143.7C252,-135.98 252,-126.71 252,-118.11"/>
<polygon fill="black" stroke="black" points="255.5,-118.1 252,-108.1 248.5,-118.1 255.5,-118.1"/>
</g>
</g>
</svg>
