<?xml version="1.0" encoding="UTF-8" standalone="no"?>
<!DOCTYPE svg PUBLIC "-//W3C//DTD SVG 1.1//EN"
 "http://www.w3.org/Graphics/SVG/1.1/DTD/svg11.dtd">
<!-- Generated by graphviz version 2.43.0 (0)
 -->
<!-- Title: sourcetree Pages: 1 -->
<svg width="252pt" height="116pt"
 viewBox="0.00 0.00 252.00 116.00" xmlns="http://www.w3.org/2000/svg" xmlns:xlink="http://www.w3.org/1999/xlink">
<g id="graph0" class="graph" transform="scale(1 1) rotate(0) translate(4 112)">
<title>sourcetree</title>
<polygon fill="white" stroke="transparent" points="-4,4 -4,-112 248,-112 248,4 -4,4"/>
<!-- MulleZlib -->
<g id="node1" class="node">
<title>MulleZlib</title>
<polygon fill="yellow" stroke="black" points="193.5,-108 108.5,-108 108.5,-72 193.5,-72 193.5,-108"/>
<text text-anchor="middle" x="151" y="-86.3" font-family="Times,serif" font-size="14.00">MulleZlib</text>
</g>
<!-- MulleFoundationBase -->
<g id="node2" class="node">
<title>MulleFoundationBase</title>
<g id="a_node2"><a xlink:href="https://github.com/MulleFoundation/MulleFoundationBase" xlink:title="MulleFoundationBase">
<polygon fill="lightgrey" stroke="black" points="172,-36 0,-36 0,0 172,0 172,-36"/>
<text text-anchor="middle" x="86" y="-14.3" font-family="Times,serif" font-size="14.00">MulleFoundationBase</text>
</a>
</g>
</g>
<!-- MulleZlib&#45;&gt;MulleFoundationBase -->
<g id="edge1" class="edge">
<title>MulleZlib&#45;&gt;MulleFoundationBase</title>
<path fill="none" stroke="black" d="M134.93,-71.7C127.06,-63.22 117.44,-52.86 108.83,-43.58"/>
<polygon fill="black" stroke="black" points="111.25,-41.05 101.88,-36.1 106.12,-45.81 111.25,-41.05"/>
</g>
<!-- zlib -->
<g id="node3" class="node">
<title>zlib</title>
<g id="a_node3"><a xlink:href="https://github.com/madler/zlib" xlink:title="zlib">
<polygon fill="lightgrey" stroke="black" points="244,-36 190,-36 190,0 244,0 244,-36"/>
<text text-anchor="middle" x="217" y="-14.3" font-family="Times,serif" font-size="14.00">zlib</text>
</a>
</g>
</g>
<!-- MulleZlib&#45;&gt;zlib -->
<g id="edge2" class="edge">
<title>MulleZlib&#45;&gt;zlib</title>
<path fill="none" stroke="black" d="M167.31,-71.7C175.31,-63.22 185.07,-52.86 193.82,-43.58"/>
<polygon fill="black" stroke="black" points="196.56,-45.78 200.87,-36.1 191.47,-40.98 196.56,-45.78"/>
</g>
</g>
</svg>
