<?xml version="1.0" encoding="UTF-8" standalone="no"?>
<!DOCTYPE svg PUBLIC "-//W3C//DTD SVG 1.1//EN"
 "http://www.w3.org/Graphics/SVG/1.1/DTD/svg11.dtd">
<!-- Generated by graphviz version 2.43.0 (0)
 -->
<!-- Title: sourcetree Pages: 1 -->
<svg width="3090pt" height="260pt"
 viewBox="0.00 0.00 3090.00 260.00" xmlns="http://www.w3.org/2000/svg" xmlns:xlink="http://www.w3.org/1999/xlink">
<g id="graph0" class="graph" transform="scale(1 1) rotate(0) translate(4 256)">
<title>sourcetree</title>
<polygon fill="white" stroke="transparent" points="-4,4 -4,-256 3086,-256 3086,4 -4,4"/>
<!-- MulleZlib -->
<g id="node1" class="node">
<title>MulleZlib</title>
<polygon fill="yellow" stroke="black" points="1658.5,-252 1573.5,-252 1573.5,-216 1658.5,-216 1658.5,-252"/>
<text text-anchor="middle" x="1616" y="-230.3" font-family="Times,serif" font-size="14.00">MulleZlib</text>
</g>
<!-- MulleFoundationBase -->
<g id="node2" class="node">
<title>MulleFoundationBase</title>
<g id="a_node2"><a xlink:href="https://github.com/MulleFoundation/MulleFoundationBase" xlink:title="MulleFoundationBase">
<polygon fill="lightgrey" stroke="black" points="1637,-180 1465,-180 1465,-144 1637,-144 1637,-180"/>
<text text-anchor="middle" x="1551" y="-158.3" font-family="Times,serif" font-size="14.00">MulleFoundationBase</text>
</a>
</g>
</g>
<!-- MulleZlib&#45;&gt;MulleFoundationBase -->
<g id="edge17" class="edge">
<title>MulleZlib&#45;&gt;MulleFoundationBase</title>
<path fill="none" stroke="black" d="M1599.93,-215.7C1592.06,-207.22 1582.44,-196.86 1573.83,-187.58"/>
<polygon fill="black" stroke="black" points="1576.25,-185.05 1566.88,-180.1 1571.12,-189.81 1576.25,-185.05"/>
</g>
<!-- zlib -->
<g id="node19" class="node">
<title>zlib</title>
<g id="a_node19"><a xlink:href="https://github.com/madler/zlib" xlink:title="zlib">
<polygon fill="lightgrey" stroke="black" points="1709,-180 1655,-180 1655,-144 1709,-144 1709,-180"/>
<text text-anchor="middle" x="1682" y="-158.3" font-family="Times,serif" font-size="14.00">zlib</text>
</a>
</g>
</g>
<!-- MulleZlib&#45;&gt;zlib -->
<g id="edge18" class="edge">
<title>MulleZlib&#45;&gt;zlib</title>
<path fill="none" stroke="black" d="M1632.31,-215.7C1640.31,-207.22 1650.07,-196.86 1658.82,-187.58"/>
<polygon fill="black" stroke="black" points="1661.56,-189.78 1665.87,-180.1 1656.47,-184.98 1661.56,-189.78"/>
</g>
<!-- MulleObjC -->
<g id="node3" class="node">
<title>MulleObjC</title>
<g id="a_node3"><a xlink:href="https://github.com/mulle-objc/MulleObjC" xlink:title="MulleObjC">
<polygon fill="lightgrey" stroke="black" points="244,-108 152,-108 152,-72 244,-72 244,-108"/>
<text text-anchor="middle" x="198" y="-86.3" font-family="Times,serif" font-size="14.00">MulleObjC</text>
</a>
</g>
</g>
<!-- MulleFoundationBase&#45;&gt;MulleObjC -->
<g id="edge1" class="edge">
<title>MulleFoundationBase&#45;&gt;MulleObjC</title>
<path fill="none" stroke="black" d="M1464.81,-160.33C1217.37,-157.95 506.93,-147.88 254.12,-107.65"/>
<polygon fill="black" stroke="black" points="254.67,-104.19 244.23,-106.02 253.53,-111.1 254.67,-104.19"/>
</g>
<!-- MulleObjCArchiverFoundation -->
<g id="node4" class="node">
<title>MulleObjCArchiverFoundation</title>
<g id="a_node4"><a xlink:href="https://github.com/MulleFoundation/MulleObjCArchiverFoundation@*" xlink:title="MulleObjCArchiverFoundation">
<polygon fill="lightgrey" stroke="black" points="495.5,-108 262.5,-108 262.5,-72 495.5,-72 495.5,-108"/>
<text text-anchor="middle" x="379" y="-86.3" font-family="Times,serif" font-size="14.00">MulleObjCArchiverFoundation</text>
</a>
</g>
</g>
<!-- MulleFoundationBase&#45;&gt;MulleObjCArchiverFoundation -->
<g id="edge2" class="edge">
<title>MulleFoundationBase&#45;&gt;MulleObjCArchiverFoundation</title>
<path fill="none" stroke="black" d="M1464.72,-159.07C1287.24,-154.55 868.19,-141.17 505.83,-108.03"/>
<polygon fill="black" stroke="black" points="505.94,-104.52 495.66,-107.09 505.3,-111.49 505.94,-104.52"/>
</g>
<!-- MulleObjCContainerFoundation -->
<g id="node5" class="node">
<title>MulleObjCContainerFoundation</title>
<g id="a_node5"><a xlink:href="https://github.com/MulleFoundation/MulleObjCContainerFoundation@*" xlink:title="MulleObjCContainerFoundation">
<polygon fill="lightgrey" stroke="black" points="756.5,-108 513.5,-108 513.5,-72 756.5,-72 756.5,-108"/>
<text text-anchor="middle" x="635" y="-86.3" font-family="Times,serif" font-size="14.00">MulleObjCContainerFoundation</text>
</a>
</g>
</g>
<!-- MulleFoundationBase&#45;&gt;MulleObjCContainerFoundation -->
<g id="edge3" class="edge">
<title>MulleFoundationBase&#45;&gt;MulleObjCContainerFoundation</title>
<path fill="none" stroke="black" d="M1464.9,-156.93C1322.12,-149.79 1027.13,-133.41 766.68,-108.03"/>
<polygon fill="black" stroke="black" points="766.95,-104.54 756.65,-107.05 766.26,-111.51 766.95,-104.54"/>
</g>
<!-- MulleObjCKVCFoundation -->
<g id="node6" class="node">
<title>MulleObjCKVCFoundation</title>
<g id="a_node6"><a xlink:href="https://github.com/MulleFoundation/MulleObjCKVCFoundation@*" xlink:title="MulleObjCKVCFoundation">
<polygon fill="lightgrey" stroke="black" points="977.5,-108 774.5,-108 774.5,-72 977.5,-72 977.5,-108"/>
<text text-anchor="middle" x="876" y="-86.3" font-family="Times,serif" font-size="14.00">MulleObjCKVCFoundation</text>
</a>
</g>
</g>
<!-- MulleFoundationBase&#45;&gt;MulleObjCKVCFoundation -->
<g id="edge4" class="edge">
<title>MulleFoundationBase&#45;&gt;MulleObjCKVCFoundation</title>
<path fill="none" stroke="black" d="M1464.83,-154.47C1356.12,-145.88 1163.19,-129.47 987.53,-108.02"/>
<polygon fill="black" stroke="black" points="987.94,-104.55 977.59,-106.8 987.09,-111.49 987.94,-104.55"/>
</g>
<!-- MulleObjCLockFoundation -->
<g id="node7" class="node">
<title>MulleObjCLockFoundation</title>
<g id="a_node7"><a xlink:href="https://github.com/MulleFoundation/MulleObjCLockFoundation@*" xlink:title="MulleObjCLockFoundation">
<polygon fill="lightgrey" stroke="black" points="1202,-108 996,-108 996,-72 1202,-72 1202,-108"/>
<text text-anchor="middle" x="1099" y="-86.3" font-family="Times,serif" font-size="14.00">MulleObjCLockFoundation</text>
</a>
</g>
</g>
<!-- MulleFoundationBase&#45;&gt;MulleObjCLockFoundation -->
<g id="edge5" class="edge">
<title>MulleFoundationBase&#45;&gt;MulleObjCLockFoundation</title>
<path fill="none" stroke="black" d="M1464.92,-147.67C1393.19,-136.56 1290.47,-120.65 1212.11,-108.52"/>
<polygon fill="black" stroke="black" points="1212.61,-105.05 1202.19,-106.98 1211.54,-111.97 1212.61,-105.05"/>
</g>
<!-- MulleObjCMathFoundation -->
<g id="node8" class="node">
<title>MulleObjCMathFoundation</title>
<g id="a_node8"><a xlink:href="https://github.com/MulleFoundation/MulleObjCMathFoundation@*" xlink:title="MulleObjCMathFoundation">
<polygon fill="lightgrey" stroke="black" points="1430,-108 1220,-108 1220,-72 1430,-72 1430,-108"/>
<text text-anchor="middle" x="1325" y="-86.3" font-family="Times,serif" font-size="14.00">MulleObjCMathFoundation</text>
</a>
</g>
</g>
<!-- MulleFoundationBase&#45;&gt;MulleObjCMathFoundation -->
<g id="edge6" class="edge">
<title>MulleFoundationBase&#45;&gt;MulleObjCMathFoundation</title>
<path fill="none" stroke="black" d="M1496,-143.97C1464.01,-134.06 1423.52,-121.51 1389.96,-111.12"/>
<polygon fill="black" stroke="black" points="1390.83,-107.73 1380.24,-108.11 1388.76,-114.41 1390.83,-107.73"/>
</g>
<!-- MulleObjCPlistFoundation -->
<g id="node9" class="node">
<title>MulleObjCPlistFoundation</title>
<g id="a_node9"><a xlink:href="https://github.com/MulleFoundation/MulleObjCPlistFoundation@*" xlink:title="MulleObjCPlistFoundation">
<polygon fill="lightgrey" stroke="black" points="1653.5,-108 1448.5,-108 1448.5,-72 1653.5,-72 1653.5,-108"/>
<text text-anchor="middle" x="1551" y="-86.3" font-family="Times,serif" font-size="14.00">MulleObjCPlistFoundation</text>
</a>
</g>
</g>
<!-- MulleFoundationBase&#45;&gt;MulleObjCPlistFoundation -->
<g id="edge7" class="edge">
<title>MulleFoundationBase&#45;&gt;MulleObjCPlistFoundation</title>
<path fill="none" stroke="black" d="M1551,-143.7C1551,-135.98 1551,-126.71 1551,-118.11"/>
<polygon fill="black" stroke="black" points="1554.5,-118.1 1551,-108.1 1547.5,-118.1 1554.5,-118.1"/>
</g>
<!-- MulleObjCRegexFoundation -->
<g id="node10" class="node">
<title>MulleObjCRegexFoundation</title>
<g id="a_node10"><a xlink:href="https://github.com/MulleFoundation/MulleObjCRegexFoundation" xlink:title="MulleObjCRegexFoundation">
<polygon fill="lightgrey" stroke="black" points="1888.5,-108 1671.5,-108 1671.5,-72 1888.5,-72 1888.5,-108"/>
<text text-anchor="middle" x="1780" y="-86.3" font-family="Times,serif" font-size="14.00">MulleObjCRegexFoundation</text>
</a>
</g>
</g>
<!-- MulleFoundationBase&#45;&gt;MulleObjCRegexFoundation -->
<g id="edge8" class="edge">
<title>MulleFoundationBase&#45;&gt;MulleObjCRegexFoundation</title>
<path fill="none" stroke="black" d="M1606.73,-143.97C1639.14,-134.06 1680.18,-121.51 1714.18,-111.12"/>
<polygon fill="black" stroke="black" points="1715.48,-114.38 1724.02,-108.11 1713.44,-107.69 1715.48,-114.38"/>
</g>
<!-- MulleObjCStandardFoundation -->
<g id="node11" class="node">
<title>MulleObjCStandardFoundation</title>
<g id="a_node11"><a xlink:href="https://github.com/MulleFoundation/MulleObjCStandardFoundation@*" xlink:title="MulleObjCStandardFoundation">
<polygon fill="lightgrey" stroke="black" points="2145.5,-108 1906.5,-108 1906.5,-72 2145.5,-72 2145.5,-108"/>
<text text-anchor="middle" x="2026" y="-86.3" font-family="Times,serif" font-size="14.00">MulleObjCStandardFoundation</text>
</a>
</g>
</g>
<!-- MulleFoundationBase&#45;&gt;MulleObjCStandardFoundation -->
<g id="edge9" class="edge">
<title>MulleFoundationBase&#45;&gt;MulleObjCStandardFoundation</title>
<path fill="none" stroke="black" d="M1637.19,-145.43C1640.16,-144.94 1643.1,-144.46 1646,-144 1692.92,-136.53 1805.54,-120.93 1896.08,-108.58"/>
<polygon fill="black" stroke="black" points="1896.73,-112.02 1906.16,-107.2 1895.78,-105.09 1896.73,-112.02"/>
</g>
<!-- MulleObjCTimeFoundation -->
<g id="node12" class="node">
<title>MulleObjCTimeFoundation</title>
<g id="a_node12"><a xlink:href="https://github.com/MulleFoundation/MulleObjCTimeFoundation@*" xlink:title="MulleObjCTimeFoundation">
<polygon fill="lightgrey" stroke="black" points="2372,-108 2164,-108 2164,-72 2372,-72 2372,-108"/>
<text text-anchor="middle" x="2268" y="-86.3" font-family="Times,serif" font-size="14.00">MulleObjCTimeFoundation</text>
</a>
</g>
</g>
<!-- MulleFoundationBase&#45;&gt;MulleObjCTimeFoundation -->
<g id="edge10" class="edge">
<title>MulleFoundationBase&#45;&gt;MulleObjCTimeFoundation</title>
<path fill="none" stroke="black" d="M1637.15,-145.17C1640.13,-144.75 1643.09,-144.36 1646,-144 1867.75,-116.4 1927.83,-132.4 2153.79,-108.08"/>
<polygon fill="black" stroke="black" points="2154.42,-111.53 2163.98,-106.96 2153.66,-104.57 2154.42,-111.53"/>
</g>
<!-- MulleObjCUnicodeFoundation -->
<g id="node13" class="node">
<title>MulleObjCUnicodeFoundation</title>
<g id="a_node13"><a xlink:href="https://github.com/MulleFoundation/MulleObjCUnicodeFoundation@*" xlink:title="MulleObjCUnicodeFoundation">
<polygon fill="lightgrey" stroke="black" points="2621.5,-108 2390.5,-108 2390.5,-72 2621.5,-72 2621.5,-108"/>
<text text-anchor="middle" x="2506" y="-86.3" font-family="Times,serif" font-size="14.00">MulleObjCUnicodeFoundation</text>
</a>
</g>
</g>
<!-- MulleFoundationBase&#45;&gt;MulleObjCUnicodeFoundation -->
<g id="edge11" class="edge">
<title>MulleFoundationBase&#45;&gt;MulleObjCUnicodeFoundation</title>
<path fill="none" stroke="black" d="M1637.14,-145.09C1640.13,-144.7 1643.09,-144.33 1646,-144 1967.64,-107.5 2053.57,-137.44 2380.04,-108.03"/>
<polygon fill="black" stroke="black" points="2380.63,-111.49 2390.27,-107.1 2379.99,-104.52 2380.63,-111.49"/>
</g>
<!-- MulleObjCUUIDFoundation -->
<g id="node14" class="node">
<title>MulleObjCUUIDFoundation</title>
<g id="a_node14"><a xlink:href="https://github.com/MulleFoundation/MulleObjCUUIDFoundation@*" xlink:title="MulleObjCUUIDFoundation">
<polygon fill="lightgrey" stroke="black" points="2852.5,-108 2639.5,-108 2639.5,-72 2852.5,-72 2852.5,-108"/>
<text text-anchor="middle" x="2746" y="-86.3" font-family="Times,serif" font-size="14.00">MulleObjCUUIDFoundation</text>
</a>
</g>
</g>
<!-- MulleFoundationBase&#45;&gt;MulleObjCUUIDFoundation -->
<g id="edge12" class="edge">
<title>MulleFoundationBase&#45;&gt;MulleObjCUUIDFoundation</title>
<path fill="none" stroke="black" d="M1637.14,-145.04C1640.12,-144.66 1643.08,-144.31 1646,-144 2078.28,-97.66 2193.04,-147.33 2629.19,-108.1"/>
<polygon fill="black" stroke="black" points="2629.59,-111.58 2639.23,-107.19 2628.95,-104.61 2629.59,-111.58"/>
</g>
<!-- MulleObjCValueFoundation -->
<g id="node15" class="node">
<title>MulleObjCValueFoundation</title>
<g id="a_node15"><a xlink:href="https://github.com/MulleFoundation/MulleObjCValueFoundation@*" xlink:title="MulleObjCValueFoundation">
<polygon fill="lightgrey" stroke="black" points="3082,-108 2870,-108 2870,-72 3082,-72 3082,-108"/>
<text text-anchor="middle" x="2976" y="-86.3" font-family="Times,serif" font-size="14.00">MulleObjCValueFoundation</text>
</a>
</g>
</g>
<!-- MulleFoundationBase&#45;&gt;MulleObjCValueFoundation -->
<g id="edge13" class="edge">
<title>MulleFoundationBase&#45;&gt;MulleObjCValueFoundation</title>
<path fill="none" stroke="black" d="M1637.13,-145.02C1640.12,-144.64 1643.08,-144.3 1646,-144 2180.38,-88.58 2321.66,-155.1 2859.5,-108.16"/>
<polygon fill="black" stroke="black" points="2860.2,-111.61 2869.86,-107.25 2859.59,-104.64 2860.2,-111.61"/>
</g>
<!-- mulle&#45;objc&#45;cc -->
<g id="node16" class="node">
<title>mulle&#45;objc&#45;cc</title>
<g id="a_node16"><a xlink:href="https://github.com/mulle-cc/mulle-objc-cc" xlink:title="mulle&#45;objc&#45;cc">
<polygon fill="lightgrey" stroke="black" points="110,-36 0,-36 0,0 110,0 110,-36"/>
<text text-anchor="middle" x="55" y="-14.3" font-family="Times,serif" font-size="14.00">mulle&#45;objc&#45;cc</text>
</a>
</g>
</g>
<!-- MulleObjC&#45;&gt;mulle&#45;objc&#45;cc -->
<g id="edge14" class="edge">
<title>MulleObjC&#45;&gt;mulle&#45;objc&#45;cc</title>
<path fill="none" stroke="black" d="M163.02,-71.88C143.8,-62.47 119.77,-50.71 99.26,-40.67"/>
<polygon fill="black" stroke="black" points="100.64,-37.44 90.12,-36.19 97.56,-43.73 100.64,-37.44"/>
</g>
<!-- mulle&#45;objc&#45;debug -->
<g id="node17" class="node">
<title>mulle&#45;objc&#45;debug</title>
<g id="a_node17"><a xlink:href="https://github.com/mulle-objc/mulle-objc-debug" xlink:title="mulle&#45;objc&#45;debug">
<polygon fill="lightgrey" stroke="black" points="267.5,-36 128.5,-36 128.5,0 267.5,0 267.5,-36"/>
<text text-anchor="middle" x="198" y="-14.3" font-family="Times,serif" font-size="14.00">mulle&#45;objc&#45;debug</text>
</a>
</g>
</g>
<!-- MulleObjC&#45;&gt;mulle&#45;objc&#45;debug -->
<g id="edge15" class="edge">
<title>MulleObjC&#45;&gt;mulle&#45;objc&#45;debug</title>
<path fill="none" stroke="black" d="M198,-71.7C198,-63.98 198,-54.71 198,-46.11"/>
<polygon fill="black" stroke="black" points="201.5,-46.1 198,-36.1 194.5,-46.1 201.5,-46.1"/>
</g>
<!-- mulle&#45;objc&#45;runtime -->
<g id="node18" class="node">
<title>mulle&#45;objc&#45;runtime</title>
<g id="a_node18"><a xlink:href="https://github.com/mulle-objc/mulle-objc-runtime" xlink:title="mulle&#45;objc&#45;runtime">
<polygon fill="lightgrey" stroke="black" points="438,-36 286,-36 286,0 438,0 438,-36"/>
<text text-anchor="middle" x="362" y="-14.3" font-family="Times,serif" font-size="14.00">mulle&#45;objc&#45;runtime</text>
</a>
</g>
</g>
<!-- MulleObjC&#45;&gt;mulle&#45;objc&#45;runtime -->
<g id="edge16" class="edge">
<title>MulleObjC&#45;&gt;mulle&#45;objc&#45;runtime</title>
<path fill="none" stroke="black" d="M238.12,-71.88C260.64,-62.26 288.92,-50.19 312.77,-40.01"/>
<polygon fill="black" stroke="black" points="314.19,-43.21 322.01,-36.07 311.44,-36.77 314.19,-43.21"/>
</g>
</g>
</svg>
