<?xml version="1.0" encoding="UTF-8" standalone="no"?>
<!DOCTYPE svg PUBLIC "-//W3C//DTD SVG 1.1//EN"
 "http://www.w3.org/Graphics/SVG/1.1/DTD/svg11.dtd">
<!-- Generated by graphviz version 2.43.0 (0)
 -->
<!-- Title: sourcetree Pages: 1 -->
<svg width="2866pt" height="260pt"
 viewBox="0.00 0.00 2866.00 260.00" xmlns="http://www.w3.org/2000/svg" xmlns:xlink="http://www.w3.org/1999/xlink">
<g id="graph0" class="graph" transform="scale(1 1) rotate(0) translate(4 256)">
<title>sourcetree</title>
<polygon fill="white" stroke="transparent" points="-4,4 -4,-256 2862,-256 2862,4 -4,4"/>
<!-- MulleZlib -->
<g id="node1" class="node">
<title>MulleZlib</title>
<polygon fill="yellow" stroke="black" points="1548.5,-252 1463.5,-252 1463.5,-216 1548.5,-216 1548.5,-252"/>
<text text-anchor="middle" x="1506" y="-230.3" font-family="Times,serif" font-size="14.00">MulleZlib</text>
</g>
<!-- MulleFoundationBase -->
<g id="node2" class="node">
<title>MulleFoundationBase</title>
<g id="a_node2"><a xlink:href="https://github.com/MulleFoundation/MulleFoundationBase" xlink:title="MulleFoundationBase">
<polygon fill="lightgrey" stroke="black" points="1527,-180 1355,-180 1355,-144 1527,-144 1527,-180"/>
<text text-anchor="middle" x="1441" y="-158.3" font-family="Times,serif" font-size="14.00">MulleFoundationBase</text>
</a>
</g>
</g>
<!-- MulleZlib&#45;&gt;MulleFoundationBase -->
<g id="edge16" class="edge">
<title>MulleZlib&#45;&gt;MulleFoundationBase</title>
<path fill="none" stroke="black" d="M1489.93,-215.7C1482.06,-207.22 1472.44,-196.86 1463.83,-187.58"/>
<polygon fill="black" stroke="black" points="1466.25,-185.05 1456.88,-180.1 1461.12,-189.81 1466.25,-185.05"/>
</g>
<!-- zlib -->
<g id="node18" class="node">
<title>zlib</title>
<g id="a_node18"><a xlink:href="https://github.com/madler/zlib" xlink:title="zlib">
<polygon fill="lightgrey" stroke="black" points="1599,-180 1545,-180 1545,-144 1599,-144 1599,-180"/>
<text text-anchor="middle" x="1572" y="-158.3" font-family="Times,serif" font-size="14.00">zlib</text>
</a>
</g>
</g>
<!-- MulleZlib&#45;&gt;zlib -->
<g id="edge17" class="edge">
<title>MulleZlib&#45;&gt;zlib</title>
<path fill="none" stroke="black" d="M1522.31,-215.7C1530.31,-207.22 1540.07,-196.86 1548.82,-187.58"/>
<polygon fill="black" stroke="black" points="1551.56,-189.78 1555.87,-180.1 1546.47,-184.98 1551.56,-189.78"/>
</g>
<!-- MulleObjC -->
<g id="node3" class="node">
<title>MulleObjC</title>
<g id="a_node3"><a xlink:href="https://github.com/mulle-objc/MulleObjC" xlink:title="MulleObjC">
<polygon fill="lightgrey" stroke="black" points="244,-108 152,-108 152,-72 244,-72 244,-108"/>
<text text-anchor="middle" x="198" y="-86.3" font-family="Times,serif" font-size="14.00">MulleObjC</text>
</a>
</g>
</g>
<!-- MulleFoundationBase&#45;&gt;MulleObjC -->
<g id="edge1" class="edge">
<title>MulleFoundationBase&#45;&gt;MulleObjC</title>
<path fill="none" stroke="black" d="M1354.61,-159.94C1121.93,-156.65 484.74,-144.63 254.24,-107.67"/>
<polygon fill="black" stroke="black" points="254.67,-104.2 244.23,-106.01 253.52,-111.1 254.67,-104.2"/>
</g>
<!-- MulleObjCArchiverFoundation -->
<g id="node4" class="node">
<title>MulleObjCArchiverFoundation</title>
<g id="a_node4"><a xlink:href="https://github.com/MulleFoundation/MulleObjCArchiverFoundation@*" xlink:title="MulleObjCArchiverFoundation">
<polygon fill="lightgrey" stroke="black" points="495.5,-108 262.5,-108 262.5,-72 495.5,-72 495.5,-108"/>
<text text-anchor="middle" x="379" y="-86.3" font-family="Times,serif" font-size="14.00">MulleObjCArchiverFoundation</text>
</a>
</g>
</g>
<!-- MulleFoundationBase&#45;&gt;MulleObjCArchiverFoundation -->
<g id="edge2" class="edge">
<title>MulleFoundationBase&#45;&gt;MulleObjCArchiverFoundation</title>
<path fill="none" stroke="black" d="M1354.69,-158.35C1191.23,-152.84 825.07,-138.16 506.04,-108.05"/>
<polygon fill="black" stroke="black" points="505.95,-104.53 495.66,-107.06 505.29,-111.5 505.95,-104.53"/>
</g>
<!-- MulleObjCContainerFoundation -->
<g id="node5" class="node">
<title>MulleObjCContainerFoundation</title>
<g id="a_node5"><a xlink:href="https://github.com/MulleFoundation/MulleObjCContainerFoundation@*" xlink:title="MulleObjCContainerFoundation">
<polygon fill="lightgrey" stroke="black" points="756.5,-108 513.5,-108 513.5,-72 756.5,-72 756.5,-108"/>
<text text-anchor="middle" x="635" y="-86.3" font-family="Times,serif" font-size="14.00">MulleObjCContainerFoundation</text>
</a>
</g>
</g>
<!-- MulleFoundationBase&#45;&gt;MulleObjCContainerFoundation -->
<g id="edge3" class="edge">
<title>MulleFoundationBase&#45;&gt;MulleObjCContainerFoundation</title>
<path fill="none" stroke="black" d="M1354.83,-155.64C1228.33,-147.45 984.7,-130.5 766.69,-108.04"/>
<polygon fill="black" stroke="black" points="766.96,-104.55 756.66,-107 766.24,-111.51 766.96,-104.55"/>
</g>
<!-- MulleObjCKVCFoundation -->
<g id="node6" class="node">
<title>MulleObjCKVCFoundation</title>
<g id="a_node6"><a xlink:href="https://github.com/MulleFoundation/MulleObjCKVCFoundation@*" xlink:title="MulleObjCKVCFoundation">
<polygon fill="lightgrey" stroke="black" points="977.5,-108 774.5,-108 774.5,-72 977.5,-72 977.5,-108"/>
<text text-anchor="middle" x="876" y="-86.3" font-family="Times,serif" font-size="14.00">MulleObjCKVCFoundation</text>
</a>
</g>
</g>
<!-- MulleFoundationBase&#45;&gt;MulleObjCKVCFoundation -->
<g id="edge4" class="edge">
<title>MulleFoundationBase&#45;&gt;MulleObjCKVCFoundation</title>
<path fill="none" stroke="black" d="M1354.69,-151.85C1265.51,-142.19 1122.01,-126.05 987.67,-108.06"/>
<polygon fill="black" stroke="black" points="987.98,-104.57 977.6,-106.71 987.05,-111.51 987.98,-104.57"/>
</g>
<!-- MulleObjCMathFoundation -->
<g id="node7" class="node">
<title>MulleObjCMathFoundation</title>
<g id="a_node7"><a xlink:href="https://github.com/MulleFoundation/MulleObjCMathFoundation@*" xlink:title="MulleObjCMathFoundation">
<polygon fill="lightgrey" stroke="black" points="1206,-108 996,-108 996,-72 1206,-72 1206,-108"/>
<text text-anchor="middle" x="1101" y="-86.3" font-family="Times,serif" font-size="14.00">MulleObjCMathFoundation</text>
</a>
</g>
</g>
<!-- MulleFoundationBase&#45;&gt;MulleObjCMathFoundation -->
<g id="edge5" class="edge">
<title>MulleFoundationBase&#45;&gt;MulleObjCMathFoundation</title>
<path fill="none" stroke="black" d="M1358.26,-143.97C1308.6,-133.74 1245.3,-120.71 1193.92,-110.13"/>
<polygon fill="black" stroke="black" points="1194.31,-106.64 1183.81,-108.05 1192.9,-113.49 1194.31,-106.64"/>
</g>
<!-- MulleObjCPlistFoundation -->
<g id="node8" class="node">
<title>MulleObjCPlistFoundation</title>
<g id="a_node8"><a xlink:href="https://github.com/MulleFoundation/MulleObjCPlistFoundation@*" xlink:title="MulleObjCPlistFoundation">
<polygon fill="lightgrey" stroke="black" points="1429.5,-108 1224.5,-108 1224.5,-72 1429.5,-72 1429.5,-108"/>
<text text-anchor="middle" x="1327" y="-86.3" font-family="Times,serif" font-size="14.00">MulleObjCPlistFoundation</text>
</a>
</g>
</g>
<!-- MulleFoundationBase&#45;&gt;MulleObjCPlistFoundation -->
<g id="edge6" class="edge">
<title>MulleFoundationBase&#45;&gt;MulleObjCPlistFoundation</title>
<path fill="none" stroke="black" d="M1413.11,-143.88C1398.21,-134.72 1379.67,-123.34 1363.62,-113.48"/>
<polygon fill="black" stroke="black" points="1365.35,-110.44 1354.99,-108.19 1361.69,-116.41 1365.35,-110.44"/>
</g>
<!-- MulleObjCRegexFoundation -->
<g id="node9" class="node">
<title>MulleObjCRegexFoundation</title>
<g id="a_node9"><a xlink:href="https://github.com/MulleFoundation/MulleObjCRegexFoundation" xlink:title="MulleObjCRegexFoundation">
<polygon fill="lightgrey" stroke="black" points="1664.5,-108 1447.5,-108 1447.5,-72 1664.5,-72 1664.5,-108"/>
<text text-anchor="middle" x="1556" y="-86.3" font-family="Times,serif" font-size="14.00">MulleObjCRegexFoundation</text>
</a>
</g>
</g>
<!-- MulleFoundationBase&#45;&gt;MulleObjCRegexFoundation -->
<g id="edge7" class="edge">
<title>MulleFoundationBase&#45;&gt;MulleObjCRegexFoundation</title>
<path fill="none" stroke="black" d="M1469.13,-143.88C1484.17,-134.72 1502.87,-123.34 1519.06,-113.48"/>
<polygon fill="black" stroke="black" points="1521.04,-116.38 1527.76,-108.19 1517.4,-110.4 1521.04,-116.38"/>
</g>
<!-- MulleObjCStandardFoundation -->
<g id="node10" class="node">
<title>MulleObjCStandardFoundation</title>
<g id="a_node10"><a xlink:href="https://github.com/MulleFoundation/MulleObjCStandardFoundation@*" xlink:title="MulleObjCStandardFoundation">
<polygon fill="lightgrey" stroke="black" points="1921.5,-108 1682.5,-108 1682.5,-72 1921.5,-72 1921.5,-108"/>
<text text-anchor="middle" x="1802" y="-86.3" font-family="Times,serif" font-size="14.00">MulleObjCStandardFoundation</text>
</a>
</g>
</g>
<!-- MulleFoundationBase&#45;&gt;MulleObjCStandardFoundation -->
<g id="edge8" class="edge">
<title>MulleFoundationBase&#45;&gt;MulleObjCStandardFoundation</title>
<path fill="none" stroke="black" d="M1527.01,-144.32C1580.33,-133.98 1648.96,-120.68 1704.32,-109.94"/>
<polygon fill="black" stroke="black" points="1704.99,-113.38 1714.14,-108.04 1703.66,-106.5 1704.99,-113.38"/>
</g>
<!-- MulleObjCTimeFoundation -->
<g id="node11" class="node">
<title>MulleObjCTimeFoundation</title>
<g id="a_node11"><a xlink:href="https://github.com/MulleFoundation/MulleObjCTimeFoundation@*" xlink:title="MulleObjCTimeFoundation">
<polygon fill="lightgrey" stroke="black" points="2148,-108 1940,-108 1940,-72 2148,-72 2148,-108"/>
<text text-anchor="middle" x="2044" y="-86.3" font-family="Times,serif" font-size="14.00">MulleObjCTimeFoundation</text>
</a>
</g>
</g>
<!-- MulleFoundationBase&#45;&gt;MulleObjCTimeFoundation -->
<g id="edge9" class="edge">
<title>MulleFoundationBase&#45;&gt;MulleObjCTimeFoundation</title>
<path fill="none" stroke="black" d="M1527.16,-145.25C1530.14,-144.81 1533.09,-144.39 1536,-144 1707.46,-120.89 1754.26,-128.81 1929.87,-108.09"/>
<polygon fill="black" stroke="black" points="1930.46,-111.55 1939.97,-106.88 1929.63,-104.59 1930.46,-111.55"/>
</g>
<!-- MulleObjCUnicodeFoundation -->
<g id="node12" class="node">
<title>MulleObjCUnicodeFoundation</title>
<g id="a_node12"><a xlink:href="https://github.com/MulleFoundation/MulleObjCUnicodeFoundation@*" xlink:title="MulleObjCUnicodeFoundation">
<polygon fill="lightgrey" stroke="black" points="2397.5,-108 2166.5,-108 2166.5,-72 2397.5,-72 2397.5,-108"/>
<text text-anchor="middle" x="2282" y="-86.3" font-family="Times,serif" font-size="14.00">MulleObjCUnicodeFoundation</text>
</a>
</g>
</g>
<!-- MulleFoundationBase&#45;&gt;MulleObjCUnicodeFoundation -->
<g id="edge10" class="edge">
<title>MulleFoundationBase&#45;&gt;MulleObjCUnicodeFoundation</title>
<path fill="none" stroke="black" d="M1527.15,-145.12C1530.13,-144.72 1533.09,-144.34 1536,-144 1807.21,-111.99 1880.05,-134.09 2155.94,-108.05"/>
<polygon fill="black" stroke="black" points="2156.64,-111.5 2166.26,-107.06 2155.97,-104.53 2156.64,-111.5"/>
</g>
<!-- MulleObjCUUIDFoundation -->
<g id="node13" class="node">
<title>MulleObjCUUIDFoundation</title>
<g id="a_node13"><a xlink:href="https://github.com/MulleFoundation/MulleObjCUUIDFoundation@*" xlink:title="MulleObjCUUIDFoundation">
<polygon fill="lightgrey" stroke="black" points="2628.5,-108 2415.5,-108 2415.5,-72 2628.5,-72 2628.5,-108"/>
<text text-anchor="middle" x="2522" y="-86.3" font-family="Times,serif" font-size="14.00">MulleObjCUUIDFoundation</text>
</a>
</g>
</g>
<!-- MulleFoundationBase&#45;&gt;MulleObjCUUIDFoundation -->
<g id="edge11" class="edge">
<title>MulleFoundationBase&#45;&gt;MulleObjCUUIDFoundation</title>
<path fill="none" stroke="black" d="M1527.14,-145.06C1530.13,-144.67 1533.09,-144.32 1536,-144 1917.84,-102.14 2019.54,-143.66 2405.19,-108.11"/>
<polygon fill="black" stroke="black" points="2405.6,-111.59 2415.23,-107.17 2404.95,-104.62 2405.6,-111.59"/>
</g>
<!-- MulleObjCValueFoundation -->
<g id="node14" class="node">
<title>MulleObjCValueFoundation</title>
<g id="a_node14"><a xlink:href="https://github.com/MulleFoundation/MulleObjCValueFoundation@*" xlink:title="MulleObjCValueFoundation">
<polygon fill="lightgrey" stroke="black" points="2858,-108 2646,-108 2646,-72 2858,-72 2858,-108"/>
<text text-anchor="middle" x="2752" y="-86.3" font-family="Times,serif" font-size="14.00">MulleObjCValueFoundation</text>
</a>
</g>
</g>
<!-- MulleFoundationBase&#45;&gt;MulleObjCValueFoundation -->
<g id="edge12" class="edge">
<title>MulleFoundationBase&#45;&gt;MulleObjCValueFoundation</title>
<path fill="none" stroke="black" d="M1527.14,-145.03C1530.12,-144.65 1533.08,-144.31 1536,-144 2020.02,-93.06 2148.21,-151.4 2635.74,-108.15"/>
<polygon fill="black" stroke="black" points="2636.21,-111.62 2645.86,-107.24 2635.58,-104.65 2636.21,-111.62"/>
</g>
<!-- mulle&#45;objc&#45;cc -->
<g id="node15" class="node">
<title>mulle&#45;objc&#45;cc</title>
<g id="a_node15"><a xlink:href="https://github.com/mulle-cc/mulle-objc-cc" xlink:title="mulle&#45;objc&#45;cc">
<polygon fill="lightgrey" stroke="black" points="110,-36 0,-36 0,0 110,0 110,-36"/>
<text text-anchor="middle" x="55" y="-14.3" font-family="Times,serif" font-size="14.00">mulle&#45;objc&#45;cc</text>
</a>
</g>
</g>
<!-- MulleObjC&#45;&gt;mulle&#45;objc&#45;cc -->
<g id="edge13" class="edge">
<title>MulleObjC&#45;&gt;mulle&#45;objc&#45;cc</title>
<path fill="none" stroke="black" d="M163.02,-71.88C143.8,-62.47 119.77,-50.71 99.26,-40.67"/>
<polygon fill="black" stroke="black" points="100.64,-37.44 90.12,-36.19 97.56,-43.73 100.64,-37.44"/>
</g>
<!-- mulle&#45;objc&#45;debug -->
<g id="node16" class="node">
<title>mulle&#45;objc&#45;debug</title>
<g id="a_node16"><a xlink:href="https://github.com/mulle-objc/mulle-objc-debug" xlink:title="mulle&#45;objc&#45;debug">
<polygon fill="lightgrey" stroke="black" points="267.5,-36 128.5,-36 128.5,0 267.5,0 267.5,-36"/>
<text text-anchor="middle" x="198" y="-14.3" font-family="Times,serif" font-size="14.00">mulle&#45;objc&#45;debug</text>
</a>
</g>
</g>
<!-- MulleObjC&#45;&gt;mulle&#45;objc&#45;debug -->
<g id="edge14" class="edge">
<title>MulleObjC&#45;&gt;mulle&#45;objc&#45;debug</title>
<path fill="none" stroke="black" d="M198,-71.7C198,-63.98 198,-54.71 198,-46.11"/>
<polygon fill="black" stroke="black" points="201.5,-46.1 198,-36.1 194.5,-46.1 201.5,-46.1"/>
</g>
<!-- mulle&#45;objc&#45;runtime -->
<g id="node17" class="node">
<title>mulle&#45;objc&#45;runtime</title>
<g id="a_node17"><a xlink:href="https://github.com/mulle-objc/mulle-objc-runtime" xlink:title="mulle&#45;objc&#45;runtime">
<polygon fill="lightgrey" stroke="black" points="438,-36 286,-36 286,0 438,0 438,-36"/>
<text text-anchor="middle" x="362" y="-14.3" font-family="Times,serif" font-size="14.00">mulle&#45;objc&#45;runtime</text>
</a>
</g>
</g>
<!-- MulleObjC&#45;&gt;mulle&#45;objc&#45;runtime -->
<g id="edge15" class="edge">
<title>MulleObjC&#45;&gt;mulle&#45;objc&#45;runtime</title>
<path fill="none" stroke="black" d="M238.12,-71.88C260.64,-62.26 288.92,-50.19 312.77,-40.01"/>
<polygon fill="black" stroke="black" points="314.19,-43.21 322.01,-36.07 311.44,-36.77 314.19,-43.21"/>
</g>
</g>
</svg>
