<?xml version="1.0" encoding="UTF-8" standalone="no"?>
<!DOCTYPE svg PUBLIC "-//W3C//DTD SVG 1.1//EN"
 "http://www.w3.org/Graphics/SVG/1.1/DTD/svg11.dtd">
<!-- Generated by graphviz version 2.43.0 (0)
 -->
<!-- Title: sourcetree Pages: 1 -->
<svg width="603pt" height="260pt"
 viewBox="0.00 0.00 603.00 260.00" xmlns="http://www.w3.org/2000/svg" xmlns:xlink="http://www.w3.org/1999/xlink">
<g id="graph0" class="graph" transform="scale(1 1) rotate(0) translate(4 256)">
<title>sourcetree</title>
<polygon fill="white" stroke="transparent" points="-4,4 -4,-256 599,-256 599,4 -4,4"/>
<!-- MulleZlib -->
<g id="node1" class="node">
<title>MulleZlib</title>
<polygon fill="yellow" stroke="black" points="500.5,-252 415.5,-252 415.5,-216 500.5,-216 500.5,-252"/>
<text text-anchor="middle" x="458" y="-230.3" font-family="Times,serif" font-size="14.00">MulleZlib</text>
</g>
<!-- MulleObjCValueFoundation -->
<g id="node7" class="node">
<title>MulleObjCValueFoundation</title>
<polygon fill="lightgrey" stroke="black" points="387,-180 175,-180 175,-144 387,-144 387,-180"/>
<text text-anchor="middle" x="281" y="-158.3" font-family="Times,serif" font-size="14.00">MulleObjCValueFoundation</text>
</g>
<!-- MulleZlib&#45;&gt;MulleObjCValueFoundation -->
<g id="edge7" class="edge">
<title>MulleZlib&#45;&gt;MulleObjCValueFoundation</title>
<path fill="none" stroke="black" d="M415.15,-216.05C390.55,-206.33 359.47,-194.03 333.41,-183.73"/>
<polygon fill="black" stroke="black" points="334.65,-180.45 324.07,-180.03 332.08,-186.96 334.65,-180.45"/>
</g>
<!-- craftinfo/zlib -->
<g id="node8" class="node">
<title>craftinfo/zlib</title>
<polygon fill="lightgrey" stroke="black" points="511.5,-180 404.5,-180 404.5,-144 511.5,-144 511.5,-180"/>
<text text-anchor="middle" x="458" y="-158.3" font-family="Times,serif" font-size="14.00">craftinfo/zlib</text>
</g>
<!-- MulleZlib&#45;&gt;craftinfo/zlib -->
<g id="edge6" class="edge">
<title>MulleZlib&#45;&gt;craftinfo/zlib</title>
<path fill="none" stroke="black" d="M458,-215.7C458,-207.98 458,-198.71 458,-190.11"/>
<polygon fill="black" stroke="black" points="461.5,-190.1 458,-180.1 454.5,-190.1 461.5,-190.1"/>
</g>
<!-- zlib -->
<g id="node9" class="node">
<title>zlib</title>
<polygon fill="lightgrey" stroke="black" points="584,-180 530,-180 530,-144 584,-144 584,-180"/>
<text text-anchor="middle" x="557" y="-158.3" font-family="Times,serif" font-size="14.00">zlib</text>
</g>
<!-- MulleZlib&#45;&gt;zlib -->
<g id="edge8" class="edge">
<title>MulleZlib&#45;&gt;zlib</title>
<path fill="none" stroke="black" d="M482.22,-215.88C494.92,-206.89 510.66,-195.76 524.42,-186.03"/>
<polygon fill="black" stroke="black" points="526.54,-188.82 532.69,-180.19 522.5,-183.11 526.54,-188.82"/>
</g>
<!-- MulleObjC -->
<g id="node2" class="node">
<title>MulleObjC</title>
<polygon fill="lightgrey" stroke="black" points="327,-108 235,-108 235,-72 327,-72 327,-108"/>
<text text-anchor="middle" x="281" y="-86.3" font-family="Times,serif" font-size="14.00">MulleObjC</text>
</g>
<!-- mulle&#45;container -->
<g id="node3" class="node">
<title>mulle&#45;container</title>
<polygon fill="lightgrey" stroke="black" points="128,-36 0,-36 0,0 128,0 128,-36"/>
<text text-anchor="middle" x="64" y="-14.3" font-family="Times,serif" font-size="14.00">mulle&#45;container</text>
</g>
<!-- MulleObjC&#45;&gt;mulle&#45;container -->
<g id="edge1" class="edge">
<title>MulleObjC&#45;&gt;mulle&#45;container</title>
<path fill="none" stroke="black" d="M234.98,-74.15C203.37,-63.96 161.02,-50.3 126.37,-39.12"/>
<polygon fill="black" stroke="black" points="127.42,-35.78 116.82,-36.04 125.27,-42.44 127.42,-35.78"/>
</g>
<!-- mulle&#45;multififo -->
<g id="node4" class="node">
<title>mulle&#45;multififo</title>
<polygon fill="lightgrey" stroke="black" points="267.5,-36 146.5,-36 146.5,0 267.5,0 267.5,-36"/>
<text text-anchor="middle" x="207" y="-14.3" font-family="Times,serif" font-size="14.00">mulle&#45;multififo</text>
</g>
<!-- MulleObjC&#45;&gt;mulle&#45;multififo -->
<g id="edge2" class="edge">
<title>MulleObjC&#45;&gt;mulle&#45;multififo</title>
<path fill="none" stroke="black" d="M262.71,-71.7C253.57,-63.05 242.36,-52.45 232.4,-43.03"/>
<polygon fill="black" stroke="black" points="234.75,-40.43 225.08,-36.1 229.94,-45.52 234.75,-40.43"/>
</g>
<!-- mulle&#45;objc&#45;debug -->
<g id="node5" class="node">
<title>mulle&#45;objc&#45;debug</title>
<polygon fill="lightgrey" stroke="black" points="424.5,-36 285.5,-36 285.5,0 424.5,0 424.5,-36"/>
<text text-anchor="middle" x="355" y="-14.3" font-family="Times,serif" font-size="14.00">mulle&#45;objc&#45;debug</text>
</g>
<!-- MulleObjC&#45;&gt;mulle&#45;objc&#45;debug -->
<g id="edge3" class="edge">
<title>MulleObjC&#45;&gt;mulle&#45;objc&#45;debug</title>
<path fill="none" stroke="black" d="M299.29,-71.7C308.43,-63.05 319.64,-52.45 329.6,-43.03"/>
<polygon fill="black" stroke="black" points="332.06,-45.52 336.92,-36.1 327.25,-40.43 332.06,-45.52"/>
</g>
<!-- mulle&#45;objc&#45;runtime -->
<g id="node6" class="node">
<title>mulle&#45;objc&#45;runtime</title>
<polygon fill="lightgrey" stroke="black" points="595,-36 443,-36 443,0 595,0 595,-36"/>
<text text-anchor="middle" x="519" y="-14.3" font-family="Times,serif" font-size="14.00">mulle&#45;objc&#45;runtime</text>
</g>
<!-- MulleObjC&#45;&gt;mulle&#45;objc&#45;runtime -->
<g id="edge4" class="edge">
<title>MulleObjC&#45;&gt;mulle&#45;objc&#45;runtime</title>
<path fill="none" stroke="black" d="M327.17,-75.42C362.51,-65.03 411.78,-50.54 451.54,-38.84"/>
<polygon fill="black" stroke="black" points="452.56,-42.19 461.16,-36.01 450.58,-35.48 452.56,-42.19"/>
</g>
<!-- MulleObjCValueFoundation&#45;&gt;MulleObjC -->
<g id="edge5" class="edge">
<title>MulleObjCValueFoundation&#45;&gt;MulleObjC</title>
<path fill="none" stroke="black" d="M281,-143.7C281,-135.98 281,-126.71 281,-118.11"/>
<polygon fill="black" stroke="black" points="284.5,-118.1 281,-108.1 277.5,-118.1 284.5,-118.1"/>
</g>
</g>
</svg>
